<svg width="32" height="27" viewBox="0 0 32 27" fill="none" xmlns="http://www.w3.org/2000/svg">
<path d="M14.3649 9.25271C14.6496 9.06454 14.915 8.88754 15.1561 8.74171C15.7299 8.39496 15.9144 7.64837 15.5665 7.07475C15.2205 6.50087 14.4737 6.31778 13.9002 6.66374C13.6325 6.82522 13.3375 7.02059 13.0224 7.2291C12.0034 7.90469 10.4535 8.9561 9.58381 8.71027C8.9481 8.53062 8.87142 8.09273 8.66219 7.77537C8.21188 6.94437 7.25512 6.39281 6.39057 6.41084C6.39057 6.41084 5.61947 6.41085 4.68009 6.78044C0.447138 8.29001 0.435844 9.29148 0.436372 9.78129C0.436966 10.228 0.446147 10.6596 1.69919 11.3883H0.00402886L0 25.503H10.5719L11.2736 19.0432C11.2736 19.0432 7.76818 18.7849 6.02236 18.5321C3.9249 18.2284 3.55815 16.2949 3.55815 16.2949L2.46659 11.7937C3.09212 12.0983 3.90423 12.4478 4.97637 12.8611C5.11989 12.9162 5.26718 12.9424 5.41228 12.9424C5.90004 12.9424 6.35959 12.6465 6.54571 12.1649C6.78665 11.5388 6.47458 10.8358 5.84892 10.5951C5.18898 10.3408 4.45037 10.0292 3.83871 9.74773C3.94346 9.69945 4.05852 9.64979 4.17192 9.59966L5.86754 10.2733C6.89107 10.6685 7.17699 11.4965 6.87436 12.2834C6.64842 12.8704 5.96648 13.6013 4.76971 13.1287C4.40018 12.9829 4.06743 12.8533 3.75219 12.7233L4.27878 16.145C4.42878 17.1189 5.02663 17.6232 6.06258 17.9023C6.56295 18.1113 11.9865 18.5229 11.9865 18.5229C11.8039 20.6476 11.432 24.134 11.3872 24.5417C11.2656 25.3892 11.8143 26.2009 12.6627 26.3923C12.7853 26.4195 12.908 26.4326 13.0278 26.4326C13.7852 26.4326 14.4682 25.9094 14.6413 25.1398C14.7142 24.8154 15.3505 17.2256 15.3565 17.1499C15.3947 16.6898 15.219 16.1881 14.9075 15.8477C14.5077 15.4105 14.1494 15.0242 9.89026 14.8798L9.31156 11.123C9.4848 11.1491 9.65811 11.1664 9.83175 11.1664C11.4794 11.1664 13.1194 10.0789 14.3649 9.25271Z" fill="#010002"/>
<path d="M5.88531 6.25438C7.61241 6.25438 9.0125 4.85429 9.0125 3.12719C9.0125 1.40009 7.61241 0 5.88531 0C4.15821 0 2.75812 1.40009 2.75812 3.12719C2.75812 4.85429 4.15821 6.25438 5.88531 6.25438Z" fill="#010002"/>
<path d="M31.9962 11.3883H30.3009C31.5539 10.6596 31.5632 10.228 31.5637 9.78129C31.5642 9.29148 31.553 8.29001 27.32 6.78044C26.3805 6.41085 25.6096 6.41084 25.6096 6.41084C24.7449 6.39281 23.7883 6.94437 23.3379 7.77537C23.1286 8.09273 23.052 8.53069 22.4163 8.71027C21.5466 8.95616 19.9966 7.90469 18.9777 7.2291C18.6626 7.02066 18.3676 6.82522 18.0998 6.66374C17.5265 6.31772 16.7796 6.50087 16.4336 7.07475C16.0855 7.64837 16.2701 8.39496 16.844 8.74171C17.085 8.88754 17.3505 9.06454 17.6352 9.25271C18.8806 10.0789 20.5206 11.1664 22.1683 11.1664C22.3419 11.1664 22.5153 11.1491 22.6884 11.1231L22.1098 14.8799C17.8507 15.0243 17.4923 15.4106 17.0925 15.8478C16.7809 16.1882 16.6053 16.6899 16.6436 17.15C16.6496 17.2256 17.2859 24.8155 17.3586 25.1399C17.5319 25.9095 18.2149 26.4327 18.9723 26.4327C19.0921 26.4327 19.2147 26.4196 19.3373 26.3924C20.1857 26.2011 20.7344 25.3892 20.6128 24.5417C20.5679 24.1341 20.196 20.6477 20.0135 18.5229C20.0135 18.5229 25.4371 18.1113 25.9375 17.9023C26.9734 17.6232 27.5712 17.119 27.7213 16.145L28.2478 12.7234C27.9326 12.8534 27.5997 12.9829 27.2303 13.1288C26.0335 13.6013 25.3516 12.8704 25.1256 12.2835C24.8229 11.4966 25.1089 10.6686 26.1325 10.2733L27.828 9.59972C27.9415 9.64985 28.0565 9.69945 28.1613 9.7478C27.5497 10.0293 26.8112 10.3408 26.1511 10.5951C25.5254 10.8359 25.2133 11.5389 25.4543 12.1649C25.6404 12.6466 26.1 12.9425 26.5877 12.9425C26.7328 12.9425 26.8802 12.9163 27.0237 12.8611C28.0958 12.4479 28.9079 12.0985 29.5334 11.7937L28.4419 16.295C28.4419 16.295 28.0751 18.2285 25.9776 18.5322C24.2318 18.785 20.7264 19.0432 20.7264 19.0432L21.4281 25.5031H32L31.9962 11.3883Z" fill="#010002"/>
<path d="M26.1149 6.25438C27.842 6.25438 29.2421 4.85429 29.2421 3.12719C29.2421 1.40009 27.842 0 26.1149 0C24.3878 0 22.9877 1.40009 22.9877 3.12719C22.9877 4.85429 24.3878 6.25438 26.1149 6.25438Z" fill="#010002"/>
</svg>
