<svg width="32" height="32" viewBox="0 0 32 32" fill="none" xmlns="http://www.w3.org/2000/svg">
<path fill-rule="evenodd" clip-rule="evenodd" d="M31.594 15.8715C31.1429 15.1816 30.3853 14.7699 29.5674 14.7699H20.226L21.3639 12.3083H23.8785C24.8392 12.3083 25.7118 11.7329 26.1008 10.8424L29.3286 3.45739C29.6665 2.68566 29.5926 1.80501 29.1323 1.10159C28.6812 0.411712 27.9236 0 27.1058 0H5.65982C4.69916 0 3.82651 0.574796 3.43757 1.4653L0.209721 8.85026C-0.128141 9.62199 -0.0542915 10.5026 0.406038 11.2061C0.857751 11.8959 1.61471 12.3083 2.43259 12.3083H17.5453L16.408 14.7699H8.12148C7.16082 14.7699 6.28816 15.3447 5.89922 16.2352L2.67137 23.6202C2.33351 24.3919 2.40736 25.2726 2.86769 25.976C3.31941 26.6659 4.07636 27.0782 4.89425 27.0782H8.23471L6.21862 31.1104C6.09307 31.3602 6.15215 31.6624 6.36139 31.847C6.47709 31.9492 6.62295 32.0015 6.7688 32.0015C6.88757 32.0015 7.00635 31.967 7.11035 31.8981L14.3402 27.0782H26.3402C27.3008 27.0782 28.1735 26.5028 28.5624 25.6123L31.7903 18.2273C32.1281 17.4556 32.0543 16.5749 31.594 15.8715Z" fill="#1E1E1E"/>
</svg>
