<svg width="16" height="16" viewBox="0 0 16 16" fill="none" xmlns="http://www.w3.org/2000/svg">
<path d="M9.53449 0.681511L6.42349 0.674011H6.42199C3.14149 0.674011 0.571991 3.24426 0.571991 6.52551C0.571991 9.59901 2.96149 11.93 6.17074 12.053V14.924C6.17074 15.005 6.20374 15.1385 6.26074 15.2263C6.36724 15.395 6.54874 15.4865 6.73474 15.4865C6.83824 15.4865 6.94249 15.458 7.03624 15.398C7.23424 15.272 11.891 12.293 13.1022 11.2685C14.5287 10.061 15.3822 8.29101 15.3845 6.53451V6.52176C15.38 3.24651 12.812 0.681511 9.53449 0.680761V0.681511ZM12.3747 10.4105C11.5242 11.1305 8.72824 12.9643 7.29574 13.8928V11.5025C7.29574 11.192 7.04449 10.94 6.73324 10.94H6.43624C3.69124 10.94 1.69774 9.08301 1.69774 6.52551C1.69774 3.87501 3.77374 1.79901 6.42274 1.79901L9.53299 1.80651H9.53449C12.1835 1.80651 14.2595 3.88101 14.261 6.52851C14.2587 7.96101 13.5545 9.41151 12.3755 10.4105H12.3747Z" fill="#5B7083"/>
</svg>
