<svg width="27" height="24" viewBox="0 0 27 24" fill="none" xmlns="http://www.w3.org/2000/svg">
<path d="M2 4.27344H20C20.6904 4.27344 21.25 4.83308 21.25 5.52344V21.5234C21.25 22.2138 20.6904 22.7734 20 22.7734H2C1.30964 22.7734 0.75 22.2138 0.75 21.5234V5.52344C0.75 4.83308 1.30964 4.27344 2 4.27344Z" stroke="#DE2960" stroke-width="1.5" stroke-linecap="round" stroke-linejoin="round"/>
<path d="M22.1016 4.34375H25.3203V5.42188H22.1016V8.75H21.0156V5.42188H17.8125V4.34375H21.0156V1H22.1016V4.34375Z" fill="#DE2960"/>
<path fill-rule="evenodd" clip-rule="evenodd" d="M26.3203 3.34375V6.42188H23.1016V9.75H20.0156V6.42188H16.8125V3.34375H20.0156V0H23.1016V3.34375H26.3203ZM21.0156 4.34375H17.8125V5.42188H21.0156V8.75H22.1016V5.42188H25.3203V4.34375H22.1016V1H21.0156V4.34375Z" fill="#FBEEF8"/>
</svg>
