<svg width="32" height="32" viewBox="0 0 32 32" fill="none" xmlns="http://www.w3.org/2000/svg">
<g clip-path="url(#clip0_110_467)">
<path d="M31.0981 13.4481L27.6392 12.6316C27.3869 11.7594 27.0458 10.9268 26.6157 10.1481L28.481 7.12913C28.7666 6.66694 28.6966 6.07006 28.313 5.68638L26.3135 3.68694C25.9305 3.30388 25.3341 3.23394 24.8714 3.51944L21.8536 5.38531C21.0743 4.95525 20.2418 4.61356 19.3702 4.36181L18.5537 0.901314C18.4287 0.373814 17.9567 -6.10352e-05 17.4143 -6.10352e-05H14.5868C14.0444 -6.10352e-05 13.5731 0.373814 13.4481 0.901314L12.6316 4.36188C11.7594 4.61363 10.9268 4.95425 10.1481 5.38538L7.12913 3.51844C6.6675 3.234 6.07006 3.30338 5.68638 3.687L3.687 5.68588C3.30394 6.06944 3.234 6.6675 3.51894 7.1285L5.38538 10.1481C4.95531 10.9267 4.61356 11.7593 4.36244 12.6303L0.901375 13.4469C0.373875 13.5731 0 14.0438 0 14.5868V17.4138C0 17.9562 0.373875 18.4287 0.901375 18.5531L4.3625 19.3696C4.61425 20.2412 4.95538 21.0732 5.38544 21.8513L3.51844 24.8714C3.234 25.3336 3.30338 25.9311 3.687 26.3153L5.68587 28.3136C6.0695 28.6978 6.6675 28.7671 7.1285 28.4816L10.1486 26.6146C10.9279 27.0452 11.7605 27.3864 12.6315 27.6375L13.448 31.098C13.573 31.6273 14.0443 31.9999 14.5868 31.9999H17.4142C17.9567 31.9999 18.4286 31.6272 18.5536 31.098L19.3701 27.6375C20.2411 27.3864 21.0737 27.0452 21.8519 26.6146L24.8714 28.481C25.3341 28.7666 25.9305 28.6966 26.3147 28.313L28.3136 26.3135C28.6966 25.9305 28.7666 25.333 28.4809 24.8708L26.6145 21.8518C27.0457 21.0737 27.3863 20.2411 27.6381 19.3696L31.0986 18.553C31.6278 18.428 31.9999 17.9567 31.9999 17.4137V14.5863C32 14.0444 31.6273 13.5731 31.0981 13.4481ZM15.9997 24.8324C11.1246 24.8324 7.16869 20.8765 7.16869 15.9997C7.16869 11.1223 11.1247 7.16694 15.9997 7.16694C20.8766 7.16694 24.8324 11.1223 24.8324 15.9997C24.8324 20.8765 20.8766 24.8324 15.9997 24.8324Z" fill="black"/>
<path d="M16.0003 11.2817C13.3959 11.2817 11.2835 13.3948 11.2835 15.9997C11.2835 18.6047 13.3959 20.7177 16.0003 20.7177C18.6053 20.7177 20.7183 18.6047 20.7183 15.9997C20.7183 13.3948 18.6053 11.2817 16.0003 11.2817Z" fill="black"/>
</g>
<defs>
<clipPath id="clip0_110_467">
<rect width="32" height="32" fill="white"/>
</clipPath>
</defs>
</svg>
