<svg width="32" height="32" viewBox="0 0 32 32" fill="none" xmlns="http://www.w3.org/2000/svg">
<path d="M29.3333 8.82961V22.9934C29.3333 24.4772 28.3809 25.9611 26.8844 26.5006L20.0816 29.0636C19.6735 29.1984 19.2653 29.3334 18.7211 29.3334C18.0408 29.3334 17.2245 29.0636 16.5443 28.659C16.2721 28.3891 15.864 28.1194 15.7279 27.8495H10.5578C8.51701 27.8495 6.74829 26.2308 6.74829 24.0726V22.7236C6.74829 22.184 7.15646 21.6444 7.83673 21.6444C8.51701 21.6444 8.92517 22.0491 8.92517 22.7236V24.0726C8.92517 25.0168 9.74149 25.6912 10.5578 25.6912H15.0476V6.26665H10.5578C9.60544 6.26665 8.92517 6.94112 8.92517 7.88537V9.23429C8.92517 9.77387 8.51701 10.3134 7.83673 10.3134C7.15646 10.3134 6.74829 9.77387 6.74829 9.23429V7.88537C6.74829 5.86197 8.38096 4.10836 10.5578 4.10836H15.7279C16 3.83857 16.2721 3.56879 16.5443 3.299C17.6327 2.62453 18.8572 2.48964 20.0816 2.89432L26.8844 5.45729C28.2449 5.86197 29.3333 7.3458 29.3333 8.82961Z" fill="#DE2960"/>
<path d="M6.47619 19.7559C6.20408 19.7559 5.93198 19.6211 5.79592 19.4861L3.07483 16.7883C2.93878 16.6533 2.93878 16.5185 2.80273 16.5185C2.80273 16.3836 2.66667 16.2487 2.66667 16.1139C2.66667 15.9789 2.66667 15.844 2.80273 15.7092C2.80273 15.5743 2.93878 15.4393 3.07483 15.4393L5.79592 12.7415C6.20408 12.3368 6.88436 12.3368 7.29252 12.7415C7.70068 13.1462 7.70068 13.8207 7.29252 14.2253L6.34014 15.1696H11.9184C12.4626 15.1696 13.0068 15.5743 13.0068 16.2487C13.0068 16.9232 12.4626 17.0581 11.9184 17.0581H6.20408L7.15647 18.0023C7.56463 18.4069 7.56463 19.0815 7.15647 19.4861C7.02042 19.6211 6.7483 19.7559 6.47619 19.7559Z" fill="#DE2960"/>
</svg>
