<svg width="32" height="25" viewBox="0 0 32 25" fill="none" xmlns="http://www.w3.org/2000/svg">
<path d="M32 1.25V6.875H17.2308V0H30.7692C31.0957 3.31515e-06 31.4087 0.131701 31.6395 0.36612C31.8703 0.60054 32 0.91848 32 1.25ZM24.6154 16.25H32V9.375H24.6154V16.25ZM9.84615 16.25H22.1538V9.375H9.84615V16.25ZM7.38462 9.375H0V16.25H7.38462V9.375ZM17.2308 25H30.7692C31.0957 25 31.4087 24.8683 31.6395 24.6339C31.8703 24.3995 32 24.0815 32 23.75V18.75H17.2308V25ZM14.7692 0H1.23077C0.90435 3.31515e-06 0.591301 0.131701 0.360487 0.36612C0.129674 0.60054 3.26414e-06 0.91848 0 1.25V6.875H14.7692V0ZM0 23.75C3.26414e-06 24.0815 0.129674 24.3995 0.360487 24.6339C0.591301 24.8683 0.90435 25 1.23077 25H14.7692V18.75H0V23.75Z" fill="#F344EA"/>
</svg>
