<svg width="30" height="30" viewBox="0 0 30 30" fill="none" xmlns="http://www.w3.org/2000/svg">
<g clip-path="url(#clip0_110_463)">
<path d="M2.13 23.58C2.13 24.76 2.71 25.84 3.87 26.82C5.03 27.8 6.59 28.58 8.55 29.16C10.51 29.74 12.66 30.02 15 30C17.34 29.98 19.49 29.7 21.45 29.16C23.41 28.62 24.97 27.84 26.13 26.82C27.29 25.8 27.87 24.72 27.87 23.58C27.87 22.32 27.15 21.14 25.71 20.04V15C25.71 12.82 25.11 10.84 23.91 9.06C22.71 7.28 21.14 5.98 19.2 5.16C19.26 4.88 19.29 4.59 19.29 4.29C19.29 3.11 18.87 2.1 18.03 1.26C17.19 0.42 16.18 0 15 0C13.82 0 12.81 0.42 11.97 1.26C11.13 2.1 10.71 3.11 10.71 4.29C10.71 4.49 10.74 4.78 10.8 5.16C8.86 5.98 7.29 7.28 6.09 9.06C4.89 10.84 4.29 12.82 4.29 15V20.04C2.85 21.14 2.13 22.32 2.13 23.58ZM6.42 23.58C6.42 22.8 6.81 22.08 7.59 21.42C8.37 20.76 9.41 20.24 10.71 19.86C12.01 19.48 13.44 19.29 15 19.29C16.56 19.29 17.99 19.48 19.29 19.86C20.59 20.24 21.63 20.76 22.41 21.42C23.19 22.08 23.58 22.8 23.58 23.58C23.58 24.36 23.19 25.08 22.41 25.74C21.63 26.4 20.59 26.92 19.29 27.3C17.99 27.68 16.56 27.87 15 27.87C13.44 27.87 12.01 27.68 10.71 27.3C9.41 26.92 8.37 26.4 7.59 25.74C6.81 25.08 6.42 24.36 6.42 23.58ZM10.8 22.26C11 23.24 11.49 24.06 12.27 24.72C13.05 25.38 13.96 25.71 15 25.71C16.04 25.71 16.95 25.38 17.73 24.72C18.51 24.06 19 23.24 19.2 22.26C17.98 21.72 16.58 21.45 15 21.45C13.42 21.45 12.02 21.72 10.8 22.26Z" fill="black"/>
</g>
<defs>
<clipPath id="clip0_110_463">
<rect width="30" height="30" fill="white"/>
</clipPath>
</defs>
</svg>
